<svg width="154" height="138" viewBox="0 0 154 138" fill="none" xmlns="http://www.w3.org/2000/svg">
<g filter="url(#filter0_d_65_81)">
<g clip-path="url(#clip0_65_81)">
<path d="M58.3104 54.1667L73.6666 43.3333H92.5816L86.6666 27.0833H72.5833V16.25H94.2499L100.165 32.5H121.333V48.75H106.08L113.967 70.4275C119.951 70.6177 125.656 73.0037 129.993 77.1306C134.331 81.2574 136.998 86.8363 137.486 92.8035C137.974 98.7707 136.249 104.709 132.639 109.486C129.03 114.262 123.788 117.543 117.914 118.703C112.041 119.863 105.946 118.821 100.791 115.775C95.6368 112.729 91.7837 107.892 89.9667 102.188C88.1497 96.4829 88.4958 90.3089 90.9391 84.843C93.3824 79.3771 97.752 75.0016 103.215 72.5508L96.5195 54.1667H91.3899L82.8208 85.9625L66.977 91.7529C67.5489 96.315 66.8187 100.946 64.8708 105.111C62.923 109.276 59.8369 112.805 55.9689 115.29C52.1009 117.776 47.6087 119.117 43.0111 119.158C38.4134 119.2 33.8978 117.94 29.9856 115.525C26.0734 113.109 22.9241 109.636 20.9015 105.507C18.8789 101.378 18.0653 96.7612 18.5548 92.1895C19.0443 87.6178 20.8168 83.2778 23.6677 79.6705C26.5186 76.0632 30.3317 73.3359 34.6666 71.8033V65H23.8333V54.1667H58.3104ZM42.7916 108.333C46.3831 108.333 49.8275 106.907 52.367 104.367C54.9066 101.828 56.3333 98.3831 56.3333 94.7917C56.3333 91.2002 54.9066 87.7558 52.367 85.2163C49.8275 82.6767 46.3831 81.25 42.7916 81.25C39.2001 81.25 35.7558 82.6767 33.2162 85.2163C30.6767 87.7558 29.2499 91.2002 29.2499 94.7917C29.2499 98.3831 30.6767 101.828 33.2162 104.367C35.7558 106.907 39.2001 108.333 42.7916 108.333ZM113.208 108.333C116.8 108.333 120.244 106.907 122.784 104.367C125.323 101.828 126.75 98.3831 126.75 94.7917C126.75 91.2002 125.323 87.7558 122.784 85.2163C120.244 82.6767 116.8 81.25 113.208 81.25C109.617 81.25 106.172 82.6767 103.633 85.2163C101.093 87.7558 99.6666 91.2002 99.6666 94.7917C99.6666 98.3831 101.093 101.828 103.633 104.367C106.172 106.907 109.617 108.333 113.208 108.333Z" fill="#316789"/>
<circle cx="42.421" cy="95.1052" r="14.3684" fill="#E75B4E"/>
<circle cx="113.579" cy="95.1052" r="14.3684" fill="#E75B4E"/>
</g>
</g>
<g filter="url(#filter1_d_65_81)">
<g clip-path="url(#clip1_65_81)">
<path d="M58.3104 54.1667L73.6666 43.3333H92.5816L86.6666 27.0833H72.5833V16.25H94.2499L100.165 32.5H121.333V48.75H106.08L113.967 70.4275C119.951 70.6177 125.656 73.0037 129.993 77.1306C134.331 81.2574 136.998 86.8363 137.486 92.8035C137.974 98.7707 136.249 104.709 132.639 109.486C129.03 114.262 123.788 117.543 117.914 118.703C112.041 119.863 105.946 118.821 100.791 115.775C95.6368 112.729 91.7837 107.892 89.9667 102.188C88.1497 96.4829 88.4958 90.3089 90.9391 84.843C93.3824 79.3771 97.752 75.0016 103.215 72.5508L96.5195 54.1667H91.3899L82.8208 85.9625L66.977 91.7529C67.5489 96.315 66.8187 100.946 64.8708 105.111C62.923 109.276 59.8369 112.805 55.9689 115.29C52.1009 117.776 47.6087 119.117 43.0111 119.158C38.4134 119.2 33.8978 117.94 29.9856 115.525C26.0734 113.109 22.9241 109.636 20.9015 105.507C18.8789 101.378 18.0653 96.7612 18.5548 92.1895C19.0443 87.6178 20.8168 83.2778 23.6677 79.6705C26.5186 76.0632 30.3317 73.3359 34.6666 71.8033V65H23.8333V54.1667H58.3104ZM42.7916 108.333C46.3831 108.333 49.8275 106.907 52.367 104.367C54.9066 101.828 56.3333 98.3831 56.3333 94.7917C56.3333 91.2002 54.9066 87.7558 52.367 85.2163C49.8275 82.6767 46.3831 81.25 42.7916 81.25C39.2001 81.25 35.7558 82.6767 33.2162 85.2163C30.6767 87.7558 29.2499 91.2002 29.2499 94.7917C29.2499 98.3831 30.6767 101.828 33.2162 104.367C35.7558 106.907 39.2001 108.333 42.7916 108.333ZM113.208 108.333C116.8 108.333 120.244 106.907 122.784 104.367C125.323 101.828 126.75 98.3831 126.75 94.7917C126.75 91.2002 125.323 87.7558 122.784 85.2163C120.244 82.6767 116.8 81.25 113.208 81.25C109.617 81.25 106.172 82.6767 103.633 85.2163C101.093 87.7558 99.6666 91.2002 99.6666 94.7917C99.6666 98.3831 101.093 101.828 103.633 104.367C106.172 106.907 109.617 108.333 113.208 108.333Z" fill="#316789"/>
<circle cx="42.421" cy="95.1052" r="14.3684" fill="#E75B4E"/>
<circle cx="113.579" cy="95.1052" r="14.3684" fill="#E75B4E"/>
</g>
</g>
<g filter="url(#filter2_d_65_81)">
<line x1="10.0038" y1="117.5" x2="143.004" y2="118.5" stroke="black"/>
</g>
<defs>
<filter id="filter0_d_65_81" x="9" y="0" width="138" height="138" filterUnits="userSpaceOnUse" color-interpolation-filters="sRGB">
<feFlood flood-opacity="0" result="BackgroundImageFix"/>
<feColorMatrix in="SourceAlpha" type="matrix" values="0 0 0 0 0 0 0 0 0 0 0 0 0 0 0 0 0 0 127 0" result="hardAlpha"/>
<feOffset dy="4"/>
<feGaussianBlur stdDeviation="2"/>
<feComposite in2="hardAlpha" operator="out"/>
<feColorMatrix type="matrix" values="0 0 0 0 0 0 0 0 0 0 0 0 0 0 0 0 0 0 0.53 0"/>
<feBlend mode="normal" in2="BackgroundImageFix" result="effect1_dropShadow_65_81"/>
<feBlend mode="normal" in="SourceGraphic" in2="effect1_dropShadow_65_81" result="shape"/>
</filter>
<filter id="filter1_d_65_81" x="9" y="0" width="138" height="138" filterUnits="userSpaceOnUse" color-interpolation-filters="sRGB">
<feFlood flood-opacity="0" result="BackgroundImageFix"/>
<feColorMatrix in="SourceAlpha" type="matrix" values="0 0 0 0 0 0 0 0 0 0 0 0 0 0 0 0 0 0 127 0" result="hardAlpha"/>
<feOffset dy="4"/>
<feGaussianBlur stdDeviation="2"/>
<feComposite in2="hardAlpha" operator="out"/>
<feColorMatrix type="matrix" values="0 0 0 0 0 0 0 0 0 0 0 0 0 0 0 0 0 0 0.53 0"/>
<feBlend mode="normal" in2="BackgroundImageFix" result="effect1_dropShadow_65_81"/>
<feBlend mode="normal" in="SourceGraphic" in2="effect1_dropShadow_65_81" result="shape"/>
</filter>
<filter id="filter2_d_65_81" x="0" y="111" width="153.008" height="22" filterUnits="userSpaceOnUse" color-interpolation-filters="sRGB">
<feFlood flood-opacity="0" result="BackgroundImageFix"/>
<feColorMatrix in="SourceAlpha" type="matrix" values="0 0 0 0 0 0 0 0 0 0 0 0 0 0 0 0 0 0 127 0" result="hardAlpha"/>
<feOffset dy="4"/>
<feGaussianBlur stdDeviation="5"/>
<feComposite in2="hardAlpha" operator="out"/>
<feColorMatrix type="matrix" values="0 0 0 0 0 0 0 0 0 0 0 0 0 0 0 0 0 0 0.3 0"/>
<feBlend mode="normal" in2="BackgroundImageFix" result="effect1_dropShadow_65_81"/>
<feBlend mode="normal" in="SourceGraphic" in2="effect1_dropShadow_65_81" result="shape"/>
</filter>
<clipPath id="clip0_65_81">
<rect width="130" height="130" fill="white" transform="translate(13)"/>
</clipPath>
<clipPath id="clip1_65_81">
<rect width="130" height="130" fill="white" transform="translate(13)"/>
</clipPath>
</defs>
</svg>
