<svg width="465" height="69" viewBox="0 0 465 69" fill="none" xmlns="http://www.w3.org/2000/svg">
<path d="M32.4602 36L38.2557 1.09091H52.6761C55.2898 1.09091 57.4716 1.5625 59.2216 2.50568C60.9716 3.4375 62.2159 4.77841 62.9545 6.52841C63.6932 8.26704 63.8636 10.3295 63.4659 12.7159C63.0795 15.125 62.2159 17.1761 60.875 18.8693C59.5455 20.5511 57.8295 21.8352 55.7273 22.7216C53.6364 23.608 51.2614 24.0511 48.6023 24.0511H39.483L40.608 17.4034H48.1591C49.4205 17.4034 50.5114 17.2386 51.4318 16.9091C52.3523 16.5682 53.0852 16.0568 53.6307 15.375C54.1875 14.6818 54.5568 13.7955 54.7386 12.7159C54.9091 11.6364 54.8295 10.7443 54.5 10.0398C54.1818 9.32386 53.6193 8.78977 52.8125 8.4375C52.017 8.07386 50.9943 7.89205 49.7443 7.89205H45.5852L40.8977 36H32.4602ZM54.7557 20.0455L60.8068 36H51.6023L45.7386 20.0455H54.7557ZM76.3054 36.4943C73.544 36.4943 71.2656 35.9261 69.4702 34.7898C67.6861 33.6534 66.4304 32.0682 65.7031 30.0341C64.9759 28 64.8338 25.6364 65.277 22.9432C65.7202 20.2614 66.6349 17.9091 68.0213 15.8864C69.4077 13.8636 71.1804 12.2898 73.3395 11.1648C75.4986 10.0398 77.9474 9.47727 80.6861 9.47727C83.4361 9.47727 85.7031 10.0455 87.4872 11.1818C89.2827 12.3182 90.544 13.9034 91.2713 15.9375C92.0099 17.9716 92.1577 20.3409 91.7145 23.0455C91.2713 25.7273 90.3509 28.0795 88.9531 30.1023C87.5554 32.1136 85.7827 33.6818 83.6349 34.8068C81.4872 35.9318 79.044 36.4943 76.3054 36.4943ZM77.2429 30.2045C78.2656 30.2045 79.1804 29.8977 79.9872 29.2841C80.8054 28.6705 81.4929 27.8125 82.0497 26.7102C82.6065 25.608 83.0043 24.3295 83.2429 22.875C83.4815 21.4432 83.5043 20.1875 83.3111 19.108C83.1293 18.017 82.7429 17.1705 82.152 16.5682C81.5611 15.9545 80.7599 15.6477 79.7486 15.6477C78.7259 15.6477 77.8054 15.9602 76.9872 16.5852C76.169 17.1989 75.4815 18.0568 74.9247 19.1591C74.3793 20.25 73.9872 21.5284 73.7486 22.9943C73.5099 24.4261 73.4815 25.6818 73.6634 26.7614C73.8452 27.8409 74.2372 28.6875 74.8395 29.3011C75.4418 29.9034 76.2429 30.2045 77.2429 30.2045ZM104.695 21.0682L102.206 36H93.8707L99.6662 1.09091H107.729L105.513 14.625H105.803C106.643 13.0114 107.814 11.75 109.314 10.8409C110.814 9.93182 112.553 9.47727 114.53 9.47727C116.348 9.47727 117.871 9.88636 119.098 10.7045C120.325 11.5114 121.195 12.6534 121.706 14.1307C122.217 15.608 122.308 17.3352 121.979 19.3125L119.183 36H110.848L113.371 20.9489C113.598 19.4943 113.411 18.358 112.808 17.5398C112.206 16.7216 111.24 16.3125 109.911 16.3125C109.036 16.3125 108.229 16.5057 107.49 16.892C106.763 17.267 106.155 17.8068 105.666 18.5114C105.178 19.2159 104.854 20.0682 104.695 21.0682ZM131.648 36.4432C129.989 36.4432 128.557 36.1648 127.352 35.608C126.159 35.0398 125.284 34.1818 124.727 33.0341C124.182 31.8864 124.051 30.4545 124.335 28.7386C124.585 27.2841 125.045 26.0625 125.716 25.0739C126.398 24.0739 127.233 23.2614 128.222 22.6364C129.222 22.0114 130.335 21.5341 131.562 21.2045C132.79 20.875 134.074 20.6534 135.415 20.5398C136.915 20.4034 138.131 20.2557 139.062 20.0966C140.006 19.9375 140.71 19.7159 141.176 19.4318C141.642 19.1364 141.926 18.7273 142.028 18.2045V18.1193C142.165 17.2443 141.977 16.5682 141.466 16.0909C140.955 15.6136 140.188 15.375 139.165 15.375C138.074 15.375 137.142 15.6136 136.369 16.0909C135.597 16.5682 135.057 17.2273 134.75 18.0682L127.114 17.7955C127.591 16.2045 128.409 14.7841 129.568 13.5341C130.727 12.2727 132.199 11.2841 133.983 10.5682C135.778 9.84091 137.852 9.47727 140.205 9.47727C141.864 9.47727 143.364 9.67614 144.705 10.0739C146.045 10.4602 147.176 11.0284 148.097 11.7784C149.028 12.517 149.693 13.4261 150.091 14.5057C150.489 15.5852 150.574 16.8182 150.347 18.2045L147.364 36H139.523L140.136 32.3523H139.932C139.318 33.2386 138.597 33.9886 137.767 34.6023C136.949 35.2159 136.028 35.6761 135.006 35.983C133.983 36.2898 132.864 36.4432 131.648 36.4432ZM135.159 30.9886C136.034 30.9886 136.864 30.8068 137.648 30.4432C138.432 30.0795 139.091 29.5795 139.625 28.9432C140.17 28.2955 140.517 27.5455 140.665 26.6932L141.057 24.2045C140.818 24.3295 140.517 24.4432 140.153 24.5455C139.79 24.6477 139.403 24.7443 138.994 24.8352C138.585 24.9148 138.165 24.9943 137.733 25.0739C137.313 25.142 136.909 25.2045 136.523 25.2614C135.705 25.3864 134.994 25.5795 134.392 25.8409C133.79 26.1023 133.307 26.4432 132.943 26.8636C132.591 27.2727 132.375 27.7614 132.295 28.3295C132.159 29.1818 132.358 29.8409 132.892 30.3068C133.426 30.7614 134.182 30.9886 135.159 30.9886ZM163.335 21.0682L160.847 36H152.511L156.875 9.81818H164.801L164.017 14.625H164.307C165.125 13.0227 166.313 11.767 167.869 10.858C169.426 9.9375 171.176 9.47727 173.119 9.47727C174.949 9.47727 176.477 9.88636 177.705 10.7045C178.932 11.5227 179.801 12.6705 180.312 14.1477C180.824 15.6136 180.909 17.3352 180.568 19.3125L177.773 36H169.438L171.943 20.9489C172.193 19.5057 172.017 18.375 171.415 17.5568C170.824 16.7273 169.858 16.3125 168.517 16.3125C167.642 16.3125 166.841 16.5057 166.114 16.892C165.398 17.267 164.795 17.8068 164.307 18.5114C163.83 19.2159 163.506 20.0682 163.335 21.0682ZM200.746 36H191.678L209.251 1.09091H220.484L226.467 36H217.399L213.564 9.88636H213.291L200.746 36ZM201.837 22.2614H220.791L219.7 28.6705H200.746L201.837 22.2614ZM248.993 24.6989L251.482 9.81818H259.8L255.436 36H247.493L248.294 31.125H248.021C247.214 32.7273 246.027 34 244.459 34.9432C242.891 35.875 241.124 36.3409 239.158 36.3409C237.374 36.3409 235.874 35.9318 234.658 35.1136C233.442 34.2955 232.578 33.1534 232.067 31.6875C231.567 30.2102 231.476 28.483 231.794 26.5057L234.589 9.81818H242.925L240.419 24.8693C240.203 26.2898 240.391 27.4091 240.982 28.2273C241.584 29.0455 242.527 29.4545 243.811 29.4545C244.641 29.4545 245.419 29.2727 246.146 28.9091C246.874 28.5341 247.487 27.9943 247.987 27.2898C248.499 26.5739 248.834 25.7102 248.993 24.6989ZM279.884 9.81818L278.844 15.9545H262.327L263.366 9.81818H279.884ZM267.849 3.54545H276.185L272.162 27.767C272.082 28.2784 272.094 28.6932 272.196 29.0114C272.31 29.3182 272.514 29.5398 272.81 29.6761C273.116 29.8011 273.491 29.8636 273.935 29.8636C274.241 29.8636 274.582 29.8295 274.957 29.7614C275.332 29.6932 275.616 29.642 275.81 29.608L276.082 35.625C275.639 35.75 275.043 35.892 274.293 36.0511C273.554 36.2216 272.69 36.3295 271.702 36.375C269.702 36.4545 268.048 36.2216 266.741 35.6761C265.446 35.1193 264.531 34.2557 263.997 33.0852C263.474 31.9148 263.372 30.4489 263.69 28.6875L267.849 3.54545ZM291.696 36.4943C288.935 36.4943 286.656 35.9261 284.861 34.7898C283.077 33.6534 281.821 32.0682 281.094 30.0341C280.366 28 280.224 25.6364 280.668 22.9432C281.111 20.2614 282.026 17.9091 283.412 15.8864C284.798 13.8636 286.571 12.2898 288.73 11.1648C290.889 10.0398 293.338 9.47727 296.077 9.47727C298.827 9.47727 301.094 10.0455 302.878 11.1818C304.673 12.3182 305.935 13.9034 306.662 15.9375C307.401 17.9716 307.548 20.3409 307.105 23.0455C306.662 25.7273 305.741 28.0795 304.344 30.1023C302.946 32.1136 301.173 33.6818 299.026 34.8068C296.878 35.9318 294.435 36.4943 291.696 36.4943ZM292.634 30.2045C293.656 30.2045 294.571 29.8977 295.378 29.2841C296.196 28.6705 296.884 27.8125 297.44 26.7102C297.997 25.608 298.395 24.3295 298.634 22.875C298.872 21.4432 298.895 20.1875 298.702 19.108C298.52 18.017 298.134 17.1705 297.543 16.5682C296.952 15.9545 296.151 15.6477 295.139 15.6477C294.116 15.6477 293.196 15.9602 292.378 16.5852C291.56 17.1989 290.872 18.0568 290.315 19.1591C289.77 20.25 289.378 21.5284 289.139 22.9943C288.901 24.4261 288.872 25.6818 289.054 26.7614C289.236 27.8409 289.628 28.6875 290.23 29.3011C290.832 29.9034 291.634 30.2045 292.634 30.2045ZM354.875 13.7386H346.455C346.5 12.8523 346.415 12.0625 346.199 11.3693C345.983 10.6648 345.642 10.0625 345.176 9.5625C344.71 9.05114 344.131 8.66477 343.438 8.40341C342.744 8.14204 341.938 8.01136 341.017 8.01136C339.256 8.01136 337.659 8.44886 336.227 9.32386C334.795 10.1989 333.597 11.4602 332.631 13.108C331.665 14.7557 330.989 16.733 330.602 19.0398C330.25 21.267 330.256 23.125 330.619 24.6136C330.994 26.1023 331.688 27.2216 332.699 27.9716C333.71 28.7102 334.994 29.0795 336.551 29.0795C337.563 29.0795 338.5 28.9602 339.364 28.7216C340.239 28.4716 341.028 28.1136 341.733 27.6477C342.438 27.1818 343.045 26.6193 343.557 25.9602C344.08 25.2898 344.483 24.5455 344.767 23.7273H353.256C352.835 25.2614 352.142 26.7898 351.176 28.3125C350.222 29.8239 349.017 31.1932 347.562 32.4205C346.108 33.6477 344.42 34.6307 342.5 35.3693C340.58 36.108 338.443 36.4773 336.091 36.4773C332.875 36.4773 330.102 35.7557 327.773 34.3125C325.455 32.8693 323.778 30.7784 322.744 28.0398C321.722 25.2898 321.528 21.9602 322.165 18.0511C322.79 14.267 324.023 11.0795 325.864 8.48864C327.716 5.89773 329.966 3.9375 332.614 2.60795C335.273 1.27841 338.108 0.613635 341.119 0.613635C343.301 0.613635 345.261 0.90909 347 1.5C348.75 2.07954 350.233 2.93182 351.449 4.05682C352.665 5.17045 353.568 6.53977 354.159 8.16477C354.761 9.78977 355 11.6477 354.875 13.7386ZM363.351 36.4432C361.692 36.4432 360.26 36.1648 359.055 35.608C357.862 35.0398 356.987 34.1818 356.43 33.0341C355.885 31.8864 355.754 30.4545 356.038 28.7386C356.288 27.2841 356.749 26.0625 357.419 25.0739C358.101 24.0739 358.936 23.2614 359.925 22.6364C360.925 22.0114 362.038 21.5341 363.266 21.2045C364.493 20.875 365.777 20.6534 367.118 20.5398C368.618 20.4034 369.834 20.2557 370.766 20.0966C371.709 19.9375 372.413 19.7159 372.879 19.4318C373.345 19.1364 373.629 18.7273 373.732 18.2045V18.1193C373.868 17.2443 373.68 16.5682 373.169 16.0909C372.658 15.6136 371.891 15.375 370.868 15.375C369.777 15.375 368.845 15.6136 368.072 16.0909C367.3 16.5682 366.76 17.2273 366.453 18.0682L358.817 17.7955C359.294 16.2045 360.112 14.7841 361.271 13.5341C362.43 12.2727 363.902 11.2841 365.686 10.5682C367.482 9.84091 369.555 9.47727 371.908 9.47727C373.567 9.47727 375.067 9.67614 376.408 10.0739C377.749 10.4602 378.879 11.0284 379.8 11.7784C380.732 12.517 381.396 13.4261 381.794 14.5057C382.192 15.5852 382.277 16.8182 382.05 18.2045L379.067 36H371.226L371.839 32.3523H371.635C371.021 33.2386 370.3 33.9886 369.47 34.6023C368.652 35.2159 367.732 35.6761 366.709 35.983C365.686 36.2898 364.567 36.4432 363.351 36.4432ZM366.862 30.9886C367.737 30.9886 368.567 30.8068 369.351 30.4432C370.135 30.0795 370.794 29.5795 371.328 28.9432C371.874 28.2955 372.22 27.5455 372.368 26.6932L372.76 24.2045C372.521 24.3295 372.22 24.4432 371.857 24.5455C371.493 24.6477 371.107 24.7443 370.697 24.8352C370.288 24.9148 369.868 24.9943 369.436 25.0739C369.016 25.142 368.612 25.2045 368.226 25.2614C367.408 25.3864 366.697 25.5795 366.095 25.8409C365.493 26.1023 365.01 26.4432 364.646 26.8636C364.294 27.2727 364.078 27.7614 363.999 28.3295C363.862 29.1818 364.061 29.8409 364.595 30.3068C365.129 30.7614 365.885 30.9886 366.862 30.9886ZM384.163 36L388.527 9.81818H396.624L395.822 14.5909H396.095C396.857 12.8636 397.851 11.5795 399.078 10.7386C400.305 9.88636 401.635 9.46023 403.067 9.46023C403.453 9.46023 403.839 9.48864 404.226 9.54545C404.624 9.59091 404.999 9.65909 405.351 9.75L404.124 17.0114C403.737 16.8636 403.232 16.7557 402.607 16.6875C401.982 16.608 401.413 16.5682 400.902 16.5682C399.913 16.5682 398.993 16.7898 398.141 17.233C397.3 17.6648 396.584 18.2727 395.993 19.0568C395.413 19.8295 395.033 20.7386 394.851 21.7841L392.499 36H384.163ZM415.178 36.4943C412.439 36.4943 410.166 35.9545 408.359 34.875C406.564 33.7841 405.303 32.233 404.575 30.2216C403.848 28.1989 403.717 25.7955 404.183 23.0114C404.638 20.3068 405.564 17.9432 406.962 15.9205C408.371 13.8864 410.143 12.3068 412.28 11.1818C414.416 10.0455 416.797 9.47727 419.422 9.47727C421.286 9.47727 422.939 9.76705 424.382 10.3466C425.825 10.9261 427.018 11.7898 427.962 12.9375C428.905 14.0739 429.547 15.4716 429.888 17.1307C430.229 18.7898 430.217 20.6932 429.854 22.8409L429.53 24.9205H406.791L407.558 20.0795H422.558C422.695 19.1932 422.621 18.4034 422.337 17.7102C422.053 17.017 421.592 16.4773 420.956 16.0909C420.331 15.6932 419.564 15.4943 418.655 15.4943C417.734 15.4943 416.871 15.7102 416.064 16.142C415.268 16.5625 414.592 17.1307 414.036 17.8466C413.479 18.5625 413.115 19.3693 412.945 20.267L412.041 25.2273C411.859 26.3295 411.911 27.2727 412.195 28.0568C412.479 28.8409 412.967 29.4432 413.661 29.8636C414.354 30.2727 415.246 30.4773 416.337 30.4773C417.064 30.4773 417.746 30.3807 418.382 30.1875C419.018 29.983 419.587 29.6818 420.087 29.2841C420.598 28.875 421.013 28.3807 421.331 27.8011L428.933 28.0227C428.32 29.7386 427.371 31.233 426.087 32.5057C424.803 33.767 423.234 34.75 421.382 35.4545C419.541 36.1477 417.473 36.4943 415.178 36.4943Z" fill="#D75A65"/>
<path d="M318.173 63L320.346 49.9091H325.754C326.734 49.9091 327.552 50.0859 328.208 50.4396C328.864 50.7891 329.331 51.2919 329.608 51.9482C329.885 52.6001 329.949 53.3736 329.8 54.2685C329.655 55.1719 329.331 55.9411 328.828 56.576C328.33 57.2067 327.686 57.6882 326.898 58.0206C326.114 58.353 325.223 58.5192 324.226 58.5192H320.806L321.228 56.0263H324.06C324.533 56.0263 324.942 55.9645 325.287 55.8409C325.632 55.7131 325.907 55.5213 326.112 55.2656C326.32 55.0057 326.459 54.6733 326.527 54.2685C326.591 53.8636 326.561 53.5291 326.438 53.2649C326.318 52.9964 326.107 52.7962 325.805 52.6641C325.506 52.5277 325.123 52.4595 324.654 52.4595H323.094L321.337 63H318.173ZM326.533 57.017L328.803 63H325.351L323.152 57.017H326.533ZM332.973 63.1662C332.351 63.1662 331.814 63.0618 331.363 62.853C330.915 62.6399 330.587 62.3182 330.378 61.8878C330.174 61.4574 330.125 60.9205 330.231 60.277C330.325 59.7315 330.498 59.2734 330.749 58.9027C331.005 58.5277 331.318 58.223 331.689 57.9886C332.064 57.7543 332.481 57.5753 332.941 57.4517C333.402 57.3281 333.883 57.245 334.386 57.2024C334.949 57.1513 335.404 57.0959 335.754 57.0362C336.108 56.9766 336.372 56.8935 336.547 56.7869C336.721 56.6761 336.828 56.5227 336.866 56.3267V56.2947C336.917 55.9666 336.847 55.7131 336.655 55.5341C336.463 55.3551 336.176 55.2656 335.792 55.2656C335.383 55.2656 335.034 55.3551 334.744 55.5341C334.454 55.7131 334.252 55.9602 334.137 56.2756L331.273 56.1733C331.452 55.5767 331.759 55.044 332.194 54.5753C332.628 54.1023 333.18 53.7315 333.849 53.4631C334.522 53.1903 335.3 53.054 336.182 53.054C336.804 53.054 337.367 53.1286 337.87 53.2777C338.373 53.4226 338.797 53.6357 339.142 53.9169C339.491 54.1939 339.74 54.5348 339.89 54.9396C340.039 55.3445 340.071 55.8068 339.985 56.3267L338.867 63H335.926L336.157 61.6321H336.08C335.85 61.9645 335.579 62.2457 335.268 62.4759C334.961 62.706 334.616 62.8786 334.233 62.9936C333.849 63.1087 333.429 63.1662 332.973 63.1662ZM334.29 61.1207C334.618 61.1207 334.929 61.0526 335.223 60.9162C335.517 60.7798 335.765 60.5923 335.965 60.3537C336.169 60.1108 336.299 59.8295 336.355 59.5099L336.502 58.5767C336.412 58.6236 336.299 58.6662 336.163 58.7045C336.027 58.7429 335.882 58.7791 335.728 58.8132C335.575 58.843 335.417 58.8729 335.255 58.9027C335.098 58.9283 334.946 58.9517 334.801 58.973C334.495 59.0199 334.228 59.0923 334.002 59.1903C333.777 59.2884 333.596 59.4162 333.459 59.5739C333.327 59.7273 333.246 59.9105 333.216 60.1236C333.165 60.4432 333.24 60.6903 333.44 60.8651C333.64 61.0355 333.924 61.1207 334.29 61.1207ZM344.856 57.4006L343.923 63H340.797L342.971 49.9091H345.994L345.163 54.9844H345.272C345.587 54.3793 346.026 53.9062 346.588 53.5653C347.151 53.2244 347.803 53.054 348.544 53.054C349.226 53.054 349.797 53.2074 350.257 53.5142C350.718 53.8168 351.044 54.245 351.235 54.799C351.427 55.353 351.461 56.0007 351.338 56.7422L350.289 63H347.164L348.11 57.3558C348.195 56.8104 348.125 56.3842 347.899 56.0774C347.673 55.7706 347.311 55.6172 346.812 55.6172C346.484 55.6172 346.181 55.6896 345.904 55.8345C345.632 55.9751 345.404 56.1776 345.221 56.4418C345.037 56.706 344.916 57.0256 344.856 57.4006ZM359.259 58.7621L360.192 53.1818H363.312L361.675 63H358.697L358.997 61.1719H358.895C358.592 61.7727 358.147 62.25 357.559 62.6037C356.971 62.9531 356.308 63.1278 355.571 63.1278C354.902 63.1278 354.339 62.9744 353.883 62.6676C353.427 62.3608 353.104 61.9325 352.912 61.3828C352.724 60.8288 352.69 60.1811 352.809 59.4396L353.858 53.1818H356.983L356.044 58.826C355.963 59.3587 356.033 59.7784 356.255 60.0852C356.481 60.392 356.834 60.5455 357.316 60.5455C357.627 60.5455 357.919 60.4773 358.192 60.3409C358.464 60.2003 358.694 59.9979 358.882 59.7337C359.074 59.4652 359.199 59.1413 359.259 58.7621ZM368.964 49.9091L366.79 63H363.665L365.838 49.9091H368.964ZM375.389 63.1662C374.767 63.1662 374.23 63.0618 373.779 62.853C373.331 62.6399 373.003 62.3182 372.794 61.8878C372.59 61.4574 372.541 60.9205 372.647 60.277C372.741 59.7315 372.914 59.2734 373.165 58.9027C373.421 58.5277 373.734 58.223 374.105 57.9886C374.48 57.7543 374.897 57.5753 375.357 57.4517C375.818 57.3281 376.299 57.245 376.802 57.2024C377.365 57.1513 377.82 57.0959 378.17 57.0362C378.524 56.9766 378.788 56.8935 378.963 56.7869C379.137 56.6761 379.244 56.5227 379.282 56.3267V56.2947C379.333 55.9666 379.263 55.7131 379.071 55.5341C378.879 55.3551 378.592 55.2656 378.208 55.2656C377.799 55.2656 377.45 55.3551 377.16 55.5341C376.87 55.7131 376.668 55.9602 376.553 56.2756L373.689 56.1733C373.868 55.5767 374.175 55.044 374.61 54.5753C375.044 54.1023 375.596 53.7315 376.265 53.4631C376.938 53.1903 377.716 53.054 378.598 53.054C379.22 53.054 379.783 53.1286 380.286 53.2777C380.789 53.4226 381.213 53.6357 381.558 53.9169C381.907 54.1939 382.156 54.5348 382.306 54.9396C382.455 55.3445 382.487 55.8068 382.401 56.3267L381.283 63H378.343L378.573 61.6321H378.496C378.266 61.9645 377.995 62.2457 377.684 62.4759C377.377 62.706 377.032 62.8786 376.649 62.9936C376.265 63.1087 375.845 63.1662 375.389 63.1662ZM376.706 61.1207C377.034 61.1207 377.345 61.0526 377.639 60.9162C377.933 60.7798 378.181 60.5923 378.381 60.3537C378.585 60.1108 378.715 59.8295 378.771 59.5099L378.918 58.5767C378.828 58.6236 378.715 58.6662 378.579 58.7045C378.443 58.7429 378.298 58.7791 378.144 58.8132C377.991 58.843 377.833 58.8729 377.671 58.9027C377.514 58.9283 377.362 58.9517 377.218 58.973C376.911 59.0199 376.644 59.0923 376.419 59.1903C376.193 59.2884 376.012 59.4162 375.875 59.5739C375.743 59.7273 375.662 59.9105 375.632 60.1236C375.581 60.4432 375.656 60.6903 375.856 60.8651C376.056 61.0355 376.34 61.1207 376.706 61.1207ZM390.232 58.7621L391.165 53.1818H394.284L392.648 63H389.669L389.97 61.1719H389.867C389.565 61.7727 389.119 62.25 388.531 62.6037C387.943 62.9531 387.281 63.1278 386.544 63.1278C385.874 63.1278 385.312 62.9744 384.856 62.6676C384.4 62.3608 384.076 61.9325 383.884 61.3828C383.697 60.8288 383.663 60.1811 383.782 59.4396L384.83 53.1818H387.956L387.017 58.826C386.936 59.3587 387.006 59.7784 387.227 60.0852C387.453 60.392 387.807 60.5455 388.289 60.5455C388.6 60.5455 388.892 60.4773 389.164 60.3409C389.437 60.2003 389.667 59.9979 389.855 59.7337C390.046 59.4652 390.172 59.1413 390.232 58.7621ZM401.816 53.1818L401.426 55.483H395.232L395.622 53.1818H401.816ZM397.303 50.8295H400.429L398.92 59.9126C398.89 60.1044 398.895 60.2599 398.933 60.3793C398.975 60.4943 399.052 60.5774 399.163 60.6286C399.278 60.6754 399.419 60.6989 399.585 60.6989C399.7 60.6989 399.828 60.6861 399.968 60.6605C400.109 60.6349 400.216 60.6158 400.288 60.603L400.39 62.8594C400.224 62.9062 400 62.9595 399.719 63.0192C399.442 63.0831 399.118 63.1236 398.748 63.1406C397.998 63.1705 397.377 63.0831 396.887 62.8786C396.402 62.6697 396.059 62.3459 395.858 61.907C395.662 61.468 395.624 60.9183 395.743 60.2578L397.303 50.8295ZM406.245 63.1854C405.21 63.1854 404.355 62.9723 403.682 62.5462C403.013 62.12 402.542 61.5256 402.27 60.7628C401.997 60 401.944 59.1136 402.11 58.1037C402.276 57.098 402.619 56.2159 403.139 55.4574C403.659 54.6989 404.324 54.1087 405.133 53.6868C405.943 53.2649 406.861 53.054 407.888 53.054C408.919 53.054 409.77 53.267 410.439 53.6932C411.112 54.1193 411.585 54.7138 411.858 55.4766C412.135 56.2393 412.19 57.1278 412.024 58.142C411.858 59.1477 411.512 60.0298 410.988 60.7884C410.464 61.5426 409.799 62.1307 408.994 62.5526C408.189 62.9744 407.272 63.1854 406.245 63.1854ZM406.597 60.8267C406.98 60.8267 407.324 60.7116 407.626 60.4815C407.933 60.2514 408.191 59.9297 408.4 59.5163C408.608 59.103 408.757 58.6236 408.847 58.0781C408.936 57.5412 408.945 57.0703 408.873 56.6655C408.804 56.2564 408.659 55.9389 408.438 55.7131C408.216 55.483 407.916 55.3679 407.537 55.3679C407.153 55.3679 406.808 55.4851 406.501 55.7195C406.194 55.9496 405.936 56.2713 405.728 56.6847C405.523 57.0937 405.376 57.5732 405.287 58.1229C405.197 58.6598 405.186 59.1307 405.255 59.5355C405.323 59.9403 405.47 60.2578 405.696 60.4879C405.922 60.7138 406.222 60.8267 406.597 60.8267ZM416.086 66.6818L418.349 53.1818H421.442L421.168 54.8629H421.263C421.434 54.5646 421.66 54.277 421.941 54C422.227 53.723 422.57 53.4972 422.97 53.3224C423.371 53.1435 423.829 53.054 424.344 53.054C425.026 53.054 425.634 53.233 426.166 53.5909C426.699 53.9489 427.087 54.5007 427.33 55.2464C427.572 55.9922 427.598 56.9425 427.406 58.0973C427.223 59.2095 426.891 60.1406 426.409 60.8906C425.932 61.6406 425.365 62.2031 424.709 62.5781C424.053 62.9531 423.364 63.1406 422.644 63.1406C422.15 63.1406 421.732 63.0597 421.391 62.8977C421.055 62.7358 420.788 62.5227 420.592 62.2585C420.396 61.9943 420.26 61.7109 420.183 61.4084H420.094L419.224 66.6818H416.086ZM420.592 58.0909C420.507 58.6193 420.503 59.0795 420.58 59.4716C420.656 59.8636 420.812 60.1683 421.046 60.3857C421.285 60.5987 421.594 60.7053 421.973 60.7053C422.357 60.7053 422.697 60.5987 422.996 60.3857C423.298 60.1683 423.552 59.8636 423.756 59.4716C423.961 59.0795 424.11 58.6193 424.204 58.0909C424.285 57.5625 424.287 57.1044 424.21 56.7166C424.138 56.3288 423.987 56.0284 423.756 55.8153C423.526 55.6023 423.217 55.4957 422.83 55.4957C422.45 55.4957 422.105 55.6001 421.794 55.8089C421.487 56.0178 421.232 56.3161 421.027 56.7038C420.822 57.0916 420.678 57.554 420.592 58.0909ZM430.971 63.1662C430.349 63.1662 429.812 63.0618 429.361 62.853C428.913 62.6399 428.585 62.3182 428.376 61.8878C428.172 61.4574 428.123 60.9205 428.229 60.277C428.323 59.7315 428.496 59.2734 428.747 58.9027C429.003 58.5277 429.316 58.223 429.687 57.9886C430.062 57.7543 430.479 57.5753 430.939 57.4517C431.4 57.3281 431.881 57.245 432.384 57.2024C432.947 57.1513 433.403 57.0959 433.752 57.0362C434.106 56.9766 434.37 56.8935 434.545 56.7869C434.719 56.6761 434.826 56.5227 434.864 56.3267V56.2947C434.915 55.9666 434.845 55.7131 434.653 55.5341C434.461 55.3551 434.174 55.2656 433.79 55.2656C433.381 55.2656 433.032 55.3551 432.742 55.5341C432.452 55.7131 432.25 55.9602 432.135 56.2756L429.271 56.1733C429.45 55.5767 429.757 55.044 430.192 54.5753C430.626 54.1023 431.178 53.7315 431.847 53.4631C432.52 53.1903 433.298 53.054 434.18 53.054C434.802 53.054 435.365 53.1286 435.868 53.2777C436.371 53.4226 436.795 53.6357 437.14 53.9169C437.489 54.1939 437.738 54.5348 437.888 54.9396C438.037 55.3445 438.069 55.8068 437.983 56.3267L436.865 63H433.925L434.155 61.6321H434.078C433.848 61.9645 433.577 62.2457 433.266 62.4759C432.959 62.706 432.614 62.8786 432.231 62.9936C431.847 63.1087 431.427 63.1662 430.971 63.1662ZM432.288 61.1207C432.616 61.1207 432.927 61.0526 433.221 60.9162C433.515 60.7798 433.763 60.5923 433.963 60.3537C434.167 60.1108 434.297 59.8295 434.353 59.5099L434.5 58.5767C434.41 58.6236 434.297 58.6662 434.161 58.7045C434.025 58.7429 433.88 58.7791 433.726 58.8132C433.573 58.843 433.415 58.8729 433.253 58.9027C433.096 58.9283 432.944 58.9517 432.8 58.973C432.493 59.0199 432.226 59.0923 432.001 59.1903C431.775 59.2884 431.594 59.4162 431.457 59.5739C431.325 59.7273 431.244 59.9105 431.214 60.1236C431.163 60.4432 431.238 60.6903 431.438 60.8651C431.638 61.0355 431.922 61.1207 432.288 61.1207ZM438.776 63L440.412 53.1818H443.449L443.148 54.9716H443.251C443.536 54.3239 443.909 53.8423 444.369 53.527C444.829 53.2074 445.328 53.0476 445.865 53.0476C446.01 53.0476 446.155 53.0582 446.3 53.0795C446.449 53.0966 446.589 53.1222 446.721 53.1562L446.261 55.8793C446.116 55.8239 445.927 55.7834 445.692 55.7578C445.458 55.728 445.245 55.7131 445.053 55.7131C444.682 55.7131 444.337 55.7962 444.018 55.9624C443.702 56.1243 443.434 56.3523 443.212 56.6463C442.995 56.9361 442.852 57.277 442.784 57.669L441.902 63H438.776ZM453.988 53.1818L453.598 55.483H447.404L447.794 53.1818H453.988ZM449.475 50.8295H452.6L451.092 59.9126C451.062 60.1044 451.066 60.2599 451.105 60.3793C451.147 60.4943 451.224 60.5774 451.335 60.6286C451.45 60.6754 451.591 60.6989 451.757 60.6989C451.872 60.6989 452 60.6861 452.14 60.6605C452.281 60.6349 452.387 60.6158 452.46 60.603L452.562 62.8594C452.396 62.9062 452.172 62.9595 451.891 63.0192C451.614 63.0831 451.29 63.1236 450.919 63.1406C450.169 63.1705 449.549 63.0831 449.059 62.8786C448.574 62.6697 448.23 62.3459 448.03 61.907C447.834 61.468 447.796 60.9183 447.915 60.2578L449.475 50.8295ZM463.507 56.1797L460.688 56.2564C460.692 56.0476 460.645 55.8643 460.547 55.7067C460.449 55.5447 460.311 55.419 460.132 55.3295C459.953 55.2401 459.74 55.1953 459.493 55.1953C459.092 55.1953 458.732 55.2848 458.412 55.4638C458.097 55.6428 457.92 55.875 457.882 56.1605C457.852 56.3139 457.895 56.4482 458.01 56.5632C458.125 56.674 458.381 56.772 458.777 56.8572L460.618 57.2152C461.564 57.4027 462.25 57.7287 462.676 58.1932C463.106 58.6534 463.26 59.2628 463.136 60.0213C463.025 60.669 462.74 61.2294 462.28 61.7024C461.824 62.1754 461.242 62.5419 460.535 62.8018C459.831 63.0575 459.054 63.1854 458.202 63.1854C456.761 63.1854 455.675 62.8956 454.942 62.3161C454.213 61.7322 453.872 60.9588 453.919 59.9957L456.961 59.919C456.974 60.2812 457.096 60.554 457.326 60.7372C457.56 60.9162 457.878 61.0099 458.278 61.0185C458.717 61.027 459.096 60.9354 459.416 60.7436C459.736 60.5518 459.915 60.3153 459.953 60.0341C459.979 59.8509 459.917 59.7081 459.768 59.6058C459.623 59.5036 459.352 59.4119 458.956 59.331L457.294 59.005C456.339 58.8217 455.649 58.4766 455.223 57.9695C454.801 57.4581 454.656 56.8061 454.788 56.0135C454.899 55.3828 455.159 54.848 455.568 54.4091C455.981 53.9659 456.52 53.6293 457.185 53.3991C457.854 53.169 458.617 53.054 459.474 53.054C460.846 53.054 461.881 53.3331 462.58 53.8913C463.283 54.4453 463.592 55.2081 463.507 56.1797Z" fill="#316789"/>
<path d="M6.58381 58.7727H9.42472L10.4545 60.3139L11.7472 62.1321L13.7926 65.1364H10.6108L9.18324 63.098L8.37358 61.6491L6.58381 58.7727ZM15.0923 56.9545C14.8272 58.5218 14.3063 59.8452 13.5298 60.9247C12.758 61.9995 11.8182 62.8139 10.7102 63.3679C9.60701 63.9219 8.42093 64.1989 7.15199 64.1989C5.81203 64.1989 4.65199 63.9006 3.67188 63.304C2.69176 62.7074 1.97917 61.8385 1.53409 60.6974C1.09375 59.5563 1.00852 58.1714 1.27841 56.5426C1.53409 54.9754 2.04782 53.6496 2.8196 52.5653C3.59612 51.4811 4.54072 50.6596 5.65341 50.1009C6.77083 49.5374 7.96875 49.2557 9.24716 49.2557C10.5777 49.2557 11.7306 49.5563 12.706 50.1577C13.6861 50.759 14.3963 51.6326 14.8366 52.7784C15.277 53.9242 15.3622 55.3163 15.0923 56.9545ZM11.5767 56.5426C11.7235 55.6288 11.7235 54.8594 11.5767 54.2344C11.4347 53.6094 11.1553 53.1383 10.7386 52.821C10.322 52.4991 9.77983 52.3381 9.11222 52.3381C8.37358 52.3381 7.70597 52.5204 7.10938 52.8849C6.51752 53.2448 6.02273 53.7704 5.625 54.4616C5.22727 55.1482 4.95028 55.9792 4.79403 56.9545C4.63305 57.8778 4.62831 58.6473 4.77983 59.2628C4.93608 59.8783 5.22727 60.3423 5.65341 60.6548C6.07955 60.9626 6.62169 61.1165 7.27983 61.1165C8.01373 61.1165 8.67424 60.9389 9.26136 60.5838C9.84849 60.2287 10.3385 59.7102 10.7315 59.0284C11.1293 58.3466 11.411 57.518 11.5767 56.5426ZM23.8512 59.2912L24.8881 53.0909H28.354L26.5359 64H23.2262L23.56 61.9688H23.4464C23.1102 62.6364 22.6154 63.1667 21.962 63.5597C21.3086 63.9479 20.5723 64.142 19.7532 64.142C19.0098 64.142 18.3848 63.9716 17.8782 63.6307C17.3716 63.2898 17.0117 62.8139 16.7987 62.2031C16.5903 61.5876 16.5524 60.8679 16.685 60.044L17.8498 53.0909H21.3228L20.2788 59.3622C20.1888 59.9541 20.2669 60.4205 20.5131 60.7614C20.7641 61.1023 21.1571 61.2727 21.6921 61.2727C22.0378 61.2727 22.3621 61.197 22.6651 61.0455C22.9682 60.8892 23.2238 60.6643 23.4322 60.3707C23.6452 60.0724 23.7849 59.7126 23.8512 59.2912ZM31.7933 64.1847C31.102 64.1847 30.5054 64.0687 30.0036 63.8366C29.5064 63.5999 29.1418 63.2424 28.9098 62.7642C28.6825 62.286 28.6281 61.6894 28.7464 60.9744C28.8506 60.3684 29.0424 59.8594 29.3217 59.4474C29.6058 59.0308 29.9538 58.6922 30.3658 58.4318C30.7824 58.1714 31.2464 57.9725 31.7578 57.8352C32.2692 57.6979 32.8042 57.6056 33.3629 57.5582C33.9879 57.5014 34.4946 57.4399 34.8828 57.3736C35.2758 57.3073 35.5694 57.215 35.7635 57.0966C35.9576 56.9735 36.076 56.803 36.1186 56.5852V56.5497C36.1754 56.1851 36.0973 55.9034 35.8842 55.7045C35.6712 55.5057 35.3516 55.4062 34.9254 55.4062C34.4709 55.4062 34.0826 55.5057 33.7607 55.7045C33.4387 55.9034 33.2138 56.178 33.0859 56.5284L29.9041 56.4148C30.103 55.7519 30.4439 55.16 30.9268 54.6392C31.4098 54.1136 32.023 53.7017 32.7663 53.4034C33.5144 53.1004 34.3786 52.9489 35.3587 52.9489C36.05 52.9489 36.675 53.0317 37.2337 53.1974C37.7924 53.3584 38.2635 53.5952 38.647 53.9077C39.0353 54.2154 39.3123 54.5942 39.478 55.044C39.6437 55.4938 39.6792 56.0076 39.5845 56.5852L38.3416 64H35.0746L35.3303 62.4801H35.245C34.9893 62.8494 34.6887 63.1619 34.343 63.4176C34.0021 63.6733 33.6186 63.8651 33.1925 63.9929C32.7663 64.1207 32.3 64.1847 31.7933 64.1847ZM33.2564 61.9119C33.621 61.9119 33.9666 61.8362 34.2933 61.6847C34.62 61.5331 34.8946 61.3248 35.1172 61.0597C35.3445 60.7898 35.4889 60.4773 35.5504 60.1222L35.7138 59.0852C35.6143 59.1373 35.4889 59.1847 35.3374 59.2273C35.1858 59.2699 35.0249 59.3101 34.8544 59.348C34.6839 59.3812 34.5088 59.4143 34.3288 59.4474C34.1536 59.4759 33.9856 59.5019 33.8246 59.5256C33.4837 59.5777 33.1877 59.6581 32.9368 59.767C32.6858 59.8759 32.4846 60.018 32.3331 60.1932C32.1863 60.3636 32.0964 60.5672 32.0632 60.804C32.0064 61.1591 32.0893 61.4337 32.3118 61.6278C32.5343 61.8172 32.8492 61.9119 33.2564 61.9119ZM46.353 49.4545L43.9382 64H40.4652L42.88 49.4545H46.353ZM46.1488 64L47.967 53.0909H51.44L49.6218 64H46.1488ZM49.9485 51.8125C49.4561 51.8125 49.056 51.6491 48.7482 51.3224C48.4405 50.9957 48.3197 50.6051 48.386 50.1506C48.4523 49.6913 48.6843 49.3007 49.082 48.9787C49.4798 48.6567 49.9225 48.4957 50.4102 48.4957C50.9026 48.4957 51.2979 48.6567 51.5962 48.9787C51.8993 49.3007 52.0176 49.6913 51.9513 50.1506C51.8945 50.6051 51.6673 50.9957 51.2695 51.3224C50.8765 51.6491 50.4362 51.8125 49.9485 51.8125ZM59.8082 53.0909L59.375 55.6477H52.4929L52.9261 53.0909H59.8082ZM54.794 50.4773H58.267L56.5909 60.5696C56.5578 60.7827 56.5625 60.9555 56.6051 61.0881C56.6525 61.2159 56.7377 61.3082 56.8608 61.3651C56.9886 61.4171 57.1449 61.4432 57.3295 61.4432C57.4574 61.4432 57.5994 61.429 57.7557 61.4006C57.9119 61.3722 58.0303 61.3509 58.1108 61.3366L58.2244 63.8438C58.0398 63.8958 57.7912 63.955 57.4787 64.0213C57.1709 64.0923 56.8111 64.1373 56.3991 64.1562C55.5658 64.1894 54.8769 64.0923 54.3324 63.8651C53.7926 63.633 53.4115 63.2732 53.1889 62.7855C52.9711 62.2978 52.9285 61.687 53.0611 60.9531L54.794 50.4773ZM61.218 68.0909C60.8014 68.0909 60.4131 68.0578 60.0533 67.9915C59.6982 67.9299 59.3951 67.8471 59.1442 67.7429L60.3374 65.2216C60.6546 65.3352 60.9458 65.3991 61.2109 65.4134C61.4808 65.4323 61.7223 65.3873 61.9354 65.2784C62.1532 65.1742 62.3426 64.9872 62.5036 64.7173L62.7024 64.3835L60.7067 53.0909H64.2152L64.9254 60.8821H65.0391L68.3771 53.0909H72.1626L66.076 65.044C65.7682 65.6406 65.3965 66.1686 64.9609 66.6278C64.5253 67.0871 63.9998 67.4446 63.3842 67.7003C62.7734 67.9607 62.0514 68.0909 61.218 68.0909ZM84.0057 53.0909L83.5724 55.6477H76.5554L76.9886 53.0909H84.0057ZM76.6193 64L78.5369 52.5369C78.6742 51.6941 78.9465 50.9957 79.3537 50.4418C79.7609 49.883 80.2699 49.4664 80.8807 49.1918C81.4915 48.9124 82.1638 48.7727 82.8977 48.7727C83.3854 48.7727 83.8376 48.8106 84.2543 48.8864C84.6709 48.9574 84.974 49.0213 85.1634 49.0781L84.2045 51.6207C84.0767 51.5781 83.9252 51.5426 83.75 51.5142C83.5795 51.4858 83.4115 51.4716 83.2457 51.4716C82.8433 51.4716 82.5521 51.5616 82.3722 51.7415C82.1922 51.9214 82.0739 52.1676 82.017 52.4801L80.0923 64H76.6193ZM83.8636 64L85.6818 53.0909H89.1548L87.3366 64H83.8636ZM87.6634 51.8125C87.1709 51.8125 86.7708 51.6491 86.4631 51.3224C86.1553 50.9957 86.0346 50.6051 86.1009 50.1506C86.1671 49.6913 86.3991 49.3007 86.7969 48.9787C87.1946 48.6567 87.6373 48.4957 88.125 48.4957C88.6174 48.4957 89.0128 48.6567 89.3111 48.9787C89.6141 49.3007 89.7325 49.6913 89.6662 50.1506C89.6094 50.6051 89.3821 50.9957 88.9844 51.3224C88.5914 51.6491 88.151 51.8125 87.6634 51.8125ZM89.5472 64L91.3654 53.0909H94.739L94.4052 55.0795H94.5188C94.8361 54.3598 95.2504 53.8248 95.7617 53.4744C96.2731 53.1193 96.8271 52.9418 97.4237 52.9418C97.5846 52.9418 97.7456 52.9536 97.9066 52.9773C98.0723 52.9962 98.2286 53.0246 98.3754 53.0625L97.864 56.0881C97.703 56.0265 97.4923 55.9815 97.2319 55.9531C96.9715 55.92 96.7347 55.9034 96.5217 55.9034C96.1097 55.9034 95.7262 55.9957 95.3711 56.1804C95.0207 56.3603 94.7224 56.6136 94.4762 56.9403C94.2347 57.2623 94.0761 57.6411 94.0004 58.0767L93.0202 64H89.5472ZM108.725 56.4219L105.593 56.5071C105.598 56.2751 105.546 56.0715 105.437 55.8963C105.328 55.7164 105.174 55.5767 104.975 55.4773C104.776 55.3778 104.54 55.3281 104.265 55.3281C103.82 55.3281 103.42 55.4276 103.065 55.6264C102.714 55.8253 102.518 56.0833 102.475 56.4006C102.442 56.571 102.489 56.7202 102.617 56.848C102.745 56.9711 103.029 57.08 103.469 57.1747L105.515 57.5724C106.566 57.7808 107.328 58.143 107.802 58.6591C108.28 59.1705 108.451 59.8475 108.313 60.6903C108.19 61.41 107.873 62.0327 107.362 62.5582C106.855 63.0838 106.209 63.491 105.423 63.7798C104.641 64.0639 103.777 64.206 102.83 64.206C101.23 64.206 100.022 63.884 99.2081 63.2401C98.3984 62.5914 98.0196 61.732 98.0717 60.6619L101.452 60.5767C101.467 60.9792 101.602 61.2822 101.857 61.4858C102.118 61.6847 102.47 61.7888 102.915 61.7983C103.403 61.8078 103.825 61.706 104.18 61.4929C104.535 61.2798 104.734 61.017 104.776 60.7045C104.805 60.5009 104.736 60.3423 104.57 60.2287C104.409 60.1151 104.109 60.0133 103.668 59.9233L101.822 59.5611C100.761 59.3575 99.9941 58.974 99.5206 58.4105C99.0518 57.8423 98.8909 57.1179 99.0376 56.2372C99.1607 55.5365 99.4496 54.9422 99.9041 54.4545C100.363 53.9621 100.962 53.5881 101.701 53.3324C102.444 53.0767 103.292 52.9489 104.244 52.9489C105.768 52.9489 106.919 53.259 107.695 53.8793C108.477 54.4948 108.82 55.3423 108.725 56.4219ZM117.445 53.0909L117.012 55.6477H110.13L110.563 53.0909H117.445ZM112.431 50.4773H115.904L114.228 60.5696C114.194 60.7827 114.199 60.9555 114.242 61.0881C114.289 61.2159 114.374 61.3082 114.498 61.3651C114.625 61.4171 114.782 61.4432 114.966 61.4432C115.094 61.4432 115.236 61.429 115.392 61.4006C115.549 61.3722 115.667 61.3509 115.748 61.3366L115.861 63.8438C115.676 63.8958 115.428 63.955 115.115 64.0213C114.808 64.0923 114.448 64.1373 114.036 64.1562C113.203 64.1894 112.514 64.0923 111.969 63.8651C111.429 63.633 111.048 63.2732 110.826 62.7855C110.608 62.2978 110.565 61.687 110.698 60.9531L112.431 50.4773Z" fill="#D75A65"/>
<path d="M0 67.9773H117.211V69.3409H0V67.9773Z" fill="#D75A65"/>
<path d="M131.584 58.7727H134.425L135.455 60.3139L136.747 62.1321L138.793 65.1364H135.611L134.183 63.098L133.374 61.6491L131.584 58.7727ZM140.092 56.9545C139.827 58.5218 139.306 59.8452 138.53 60.9247C137.758 61.9995 136.818 62.8139 135.71 63.3679C134.607 63.9219 133.421 64.1989 132.152 64.1989C130.812 64.1989 129.652 63.9006 128.672 63.304C127.692 62.7074 126.979 61.8385 126.534 60.6974C126.094 59.5563 126.009 58.1714 126.278 56.5426C126.534 54.9754 127.048 53.6496 127.82 52.5653C128.596 51.4811 129.541 50.6596 130.653 50.1009C131.771 49.5374 132.969 49.2557 134.247 49.2557C135.578 49.2557 136.731 49.5563 137.706 50.1577C138.686 50.759 139.396 51.6326 139.837 52.7784C140.277 53.9242 140.362 55.3163 140.092 56.9545ZM136.577 56.5426C136.723 55.6288 136.723 54.8594 136.577 54.2344C136.435 53.6094 136.155 53.1383 135.739 52.821C135.322 52.4991 134.78 52.3381 134.112 52.3381C133.374 52.3381 132.706 52.5204 132.109 52.8849C131.518 53.2448 131.023 53.7704 130.625 54.4616C130.227 55.1482 129.95 55.9792 129.794 56.9545C129.633 57.8778 129.628 58.6473 129.78 59.2628C129.936 59.8783 130.227 60.3423 130.653 60.6548C131.08 60.9626 131.622 61.1165 132.28 61.1165C133.014 61.1165 133.674 60.9389 134.261 60.5838C134.848 60.2287 135.339 59.7102 135.732 59.0284C136.129 58.3466 136.411 57.518 136.577 56.5426ZM148.851 59.2912L149.888 53.0909H153.354L151.536 64H148.226L148.56 61.9688H148.446C148.11 62.6364 147.615 63.1667 146.962 63.5597C146.309 63.9479 145.572 64.142 144.753 64.142C144.01 64.142 143.385 63.9716 142.878 63.6307C142.372 63.2898 142.012 62.8139 141.799 62.2031C141.59 61.5876 141.552 60.8679 141.685 60.044L142.85 53.0909H146.323L145.279 59.3622C145.189 59.9541 145.267 60.4205 145.513 60.7614C145.764 61.1023 146.157 61.2727 146.692 61.2727C147.038 61.2727 147.362 61.197 147.665 61.0455C147.968 60.8892 148.224 60.6643 148.432 60.3707C148.645 60.0724 148.785 59.7126 148.851 59.2912ZM156.793 64.1847C156.102 64.1847 155.505 64.0687 155.004 63.8366C154.506 63.5999 154.142 63.2424 153.91 62.7642C153.683 62.286 153.628 61.6894 153.746 60.9744C153.851 60.3684 154.042 59.8594 154.322 59.4474C154.606 59.0308 154.954 58.6922 155.366 58.4318C155.782 58.1714 156.246 57.9725 156.758 57.8352C157.269 57.6979 157.804 57.6056 158.363 57.5582C158.988 57.5014 159.495 57.4399 159.883 57.3736C160.276 57.3073 160.569 57.215 160.763 57.0966C160.958 56.9735 161.076 56.803 161.119 56.5852V56.5497C161.175 56.1851 161.097 55.9034 160.884 55.7045C160.671 55.5057 160.352 55.4062 159.925 55.4062C159.471 55.4062 159.083 55.5057 158.761 55.7045C158.439 55.9034 158.214 56.178 158.086 56.5284L154.904 56.4148C155.103 55.7519 155.444 55.16 155.927 54.6392C156.41 54.1136 157.023 53.7017 157.766 53.4034C158.514 53.1004 159.379 52.9489 160.359 52.9489C161.05 52.9489 161.675 53.0317 162.234 53.1974C162.792 53.3584 163.263 53.5952 163.647 53.9077C164.035 54.2154 164.312 54.5942 164.478 55.044C164.644 55.4938 164.679 56.0076 164.585 56.5852L163.342 64H160.075L160.33 62.4801H160.245C159.989 62.8494 159.689 63.1619 159.343 63.4176C159.002 63.6733 158.619 63.8651 158.192 63.9929C157.766 64.1207 157.3 64.1847 156.793 64.1847ZM158.256 61.9119C158.621 61.9119 158.967 61.8362 159.293 61.6847C159.62 61.5331 159.895 61.3248 160.117 61.0597C160.344 60.7898 160.489 60.4773 160.55 60.1222L160.714 59.0852C160.614 59.1373 160.489 59.1847 160.337 59.2273C160.186 59.2699 160.025 59.3101 159.854 59.348C159.684 59.3812 159.509 59.4143 159.329 59.4474C159.154 59.4759 158.986 59.5019 158.825 59.5256C158.484 59.5777 158.188 59.6581 157.937 59.767C157.686 59.8759 157.485 60.018 157.333 60.1932C157.186 60.3636 157.096 60.5672 157.063 60.804C157.006 61.1591 157.089 61.4337 157.312 61.6278C157.534 61.8172 157.849 61.9119 158.256 61.9119ZM171.353 49.4545L168.938 64H165.465L167.88 49.4545H171.353ZM171.149 64L172.967 53.0909H176.44L174.622 64H171.149ZM174.949 51.8125C174.456 51.8125 174.056 51.6491 173.748 51.3224C173.44 50.9957 173.32 50.6051 173.386 50.1506C173.452 49.6913 173.684 49.3007 174.082 48.9787C174.48 48.6567 174.922 48.4957 175.41 48.4957C175.903 48.4957 176.298 48.6567 176.596 48.9787C176.899 49.3007 177.018 49.6913 176.951 50.1506C176.895 50.6051 176.667 50.9957 176.27 51.3224C175.877 51.6491 175.436 51.8125 174.949 51.8125ZM184.808 53.0909L184.375 55.6477H177.493L177.926 53.0909H184.808ZM179.794 50.4773H183.267L181.591 60.5696C181.558 60.7827 181.563 60.9555 181.605 61.0881C181.652 61.2159 181.738 61.3082 181.861 61.3651C181.989 61.4171 182.145 61.4432 182.33 61.4432C182.457 61.4432 182.599 61.429 182.756 61.4006C182.912 61.3722 183.03 61.3509 183.111 61.3366L183.224 63.8438C183.04 63.8958 182.791 63.955 182.479 64.0213C182.171 64.0923 181.811 64.1373 181.399 64.1562C180.566 64.1894 179.877 64.0923 179.332 63.8651C178.793 63.633 178.411 63.2732 178.189 62.7855C177.971 62.2978 177.929 61.687 178.061 60.9531L179.794 50.4773ZM186.218 68.0909C185.801 68.0909 185.413 68.0578 185.053 67.9915C184.698 67.9299 184.395 67.8471 184.144 67.7429L185.337 65.2216C185.655 65.3352 185.946 65.3991 186.211 65.4134C186.481 65.4323 186.722 65.3873 186.935 65.2784C187.153 65.1742 187.343 64.9872 187.504 64.7173L187.702 64.3835L185.707 53.0909H189.215L189.925 60.8821H190.039L193.377 53.0909H197.163L191.076 65.044C190.768 65.6406 190.397 66.1686 189.961 66.6278C189.525 67.0871 189 67.4446 188.384 67.7003C187.773 67.9607 187.051 68.0909 186.218 68.0909ZM204.02 64.1847C203.329 64.1847 202.732 64.0687 202.23 63.8366C201.733 63.5999 201.368 63.2424 201.136 62.7642C200.909 62.286 200.855 61.6894 200.973 60.9744C201.077 60.3684 201.269 59.8594 201.548 59.4474C201.832 59.0308 202.18 58.6922 202.592 58.4318C203.009 58.1714 203.473 57.9725 203.984 57.8352C204.496 57.6979 205.031 57.6056 205.589 57.5582C206.214 57.5014 206.721 57.4399 207.109 57.3736C207.502 57.3073 207.796 57.215 207.99 57.0966C208.184 56.9735 208.303 56.803 208.345 56.5852V56.5497C208.402 56.1851 208.324 55.9034 208.111 55.7045C207.898 55.5057 207.578 55.4062 207.152 55.4062C206.697 55.4062 206.309 55.5057 205.987 55.7045C205.665 55.9034 205.44 56.178 205.312 56.5284L202.131 56.4148C202.33 55.7519 202.67 55.16 203.153 54.6392C203.636 54.1136 204.25 53.7017 204.993 53.4034C205.741 53.1004 206.605 52.9489 207.585 52.9489C208.277 52.9489 208.902 53.0317 209.46 53.1974C210.019 53.3584 210.49 53.5952 210.874 53.9077C211.262 54.2154 211.539 54.5942 211.705 55.044C211.87 55.4938 211.906 56.0076 211.811 56.5852L210.568 64H207.301L207.557 62.4801H207.472C207.216 62.8494 206.915 63.1619 206.57 63.4176C206.229 63.6733 205.845 63.8651 205.419 63.9929C204.993 64.1207 204.527 64.1847 204.02 64.1847ZM205.483 61.9119C205.848 61.9119 206.193 61.8362 206.52 61.6847C206.847 61.5331 207.121 61.3248 207.344 61.0597C207.571 60.7898 207.715 60.4773 207.777 60.1222L207.94 59.0852C207.841 59.1373 207.715 59.1847 207.564 59.2273C207.412 59.2699 207.251 59.3101 207.081 59.348C206.911 59.3812 206.735 59.4143 206.555 59.4474C206.38 59.4759 206.212 59.5019 206.051 59.5256C205.71 59.5777 205.414 59.6581 205.163 59.767C204.912 59.8759 204.711 60.018 204.56 60.1932C204.413 60.3636 204.323 60.5672 204.29 60.804C204.233 61.1591 204.316 61.4337 204.538 61.6278C204.761 61.8172 205.076 61.9119 205.483 61.9119ZM218.58 49.4545L216.165 64H212.692L215.107 49.4545H218.58ZM220.414 64L219.391 53.0909H222.878L223.184 60.0795H223.276L226.017 53.0909H229.419L229.874 60.0298H229.966L232.559 53.0909H236.046L231.38 64H227.665L227.012 57.6435H226.891L224.135 64H220.414ZM238.668 64.1847C237.977 64.1847 237.38 64.0687 236.879 63.8366C236.381 63.5999 236.017 63.2424 235.785 62.7642C235.558 62.286 235.503 61.6894 235.621 60.9744C235.726 60.3684 235.917 59.8594 236.197 59.4474C236.481 59.0308 236.829 58.6922 237.241 58.4318C237.657 58.1714 238.121 57.9725 238.633 57.8352C239.144 57.6979 239.679 57.6056 240.238 57.5582C240.863 57.5014 241.37 57.4399 241.758 57.3736C242.151 57.3073 242.444 57.215 242.638 57.0966C242.833 56.9735 242.951 56.803 242.994 56.5852V56.5497C243.05 56.1851 242.972 55.9034 242.759 55.7045C242.546 55.5057 242.227 55.4062 241.8 55.4062C241.346 55.4062 240.958 55.5057 240.636 55.7045C240.314 55.9034 240.089 56.178 239.961 56.5284L236.779 56.4148C236.978 55.7519 237.319 55.16 237.802 54.6392C238.285 54.1136 238.898 53.7017 239.641 53.4034C240.389 53.1004 241.254 52.9489 242.234 52.9489C242.925 52.9489 243.55 53.0317 244.109 53.1974C244.667 53.3584 245.138 53.5952 245.522 53.9077C245.91 54.2154 246.187 54.5942 246.353 55.044C246.519 55.4938 246.554 56.0076 246.46 56.5852L245.217 64H241.95L242.205 62.4801H242.12C241.864 62.8494 241.564 63.1619 241.218 63.4176C240.877 63.6733 240.494 63.8651 240.067 63.9929C239.641 64.1207 239.175 64.1847 238.668 64.1847ZM240.131 61.9119C240.496 61.9119 240.842 61.8362 241.168 61.6847C241.495 61.5331 241.77 61.3248 241.992 61.0597C242.219 60.7898 242.364 60.4773 242.425 60.1222L242.589 59.0852C242.489 59.1373 242.364 59.1847 242.212 59.2273C242.061 59.2699 241.9 59.3101 241.729 59.348C241.559 59.3812 241.384 59.4143 241.204 59.4474C241.029 59.4759 240.861 59.5019 240.7 59.5256C240.359 59.5777 240.063 59.6581 239.812 59.767C239.561 59.8759 239.36 60.018 239.208 60.1932C239.061 60.3636 238.971 60.5672 238.938 60.804C238.881 61.1591 238.964 61.4337 239.187 61.6278C239.409 61.8172 239.724 61.9119 240.131 61.9119ZM248.406 68.0909C247.989 68.0909 247.601 68.0578 247.241 67.9915C246.886 67.9299 246.583 67.8471 246.332 67.7429L247.525 65.2216C247.842 65.3352 248.133 65.3991 248.398 65.4134C248.668 65.4323 248.91 65.3873 249.123 65.2784C249.341 65.1742 249.53 64.9872 249.691 64.7173L249.89 64.3835L247.894 53.0909H251.403L252.113 60.8821H252.227L255.565 53.0909H259.35L253.263 65.044C252.956 65.6406 252.584 66.1686 252.148 66.6278C251.713 67.0871 251.187 67.4446 250.572 67.7003C249.961 67.9607 249.239 68.0909 248.406 68.0909ZM269.624 56.4219L266.491 56.5071C266.496 56.2751 266.444 56.0715 266.335 55.8963C266.226 55.7164 266.072 55.5767 265.874 55.4773C265.675 55.3778 265.438 55.3281 265.163 55.3281C264.718 55.3281 264.318 55.4276 263.963 55.6264C263.613 55.8253 263.416 56.0833 263.374 56.4006C263.34 56.571 263.388 56.7202 263.516 56.848C263.643 56.9711 263.928 57.08 264.368 57.1747L266.413 57.5724C267.464 57.7808 268.227 58.143 268.7 58.6591C269.179 59.1705 269.349 59.8475 269.212 60.6903C269.089 61.41 268.771 62.0327 268.26 62.5582C267.753 63.0838 267.107 63.491 266.321 63.7798C265.54 64.0639 264.676 64.206 263.729 64.206C262.128 64.206 260.921 63.884 260.107 63.2401C259.297 62.5914 258.918 61.732 258.97 60.6619L262.351 60.5767C262.365 60.9792 262.5 61.2822 262.756 61.4858C263.016 61.6847 263.369 61.7888 263.814 61.7983C264.302 61.8078 264.723 61.706 265.078 61.4929C265.433 61.2798 265.632 61.017 265.675 60.7045C265.703 60.5009 265.634 60.3423 265.469 60.2287C265.308 60.1151 265.007 60.0133 264.567 59.9233L262.72 59.5611C261.66 59.3575 260.893 58.974 260.419 58.4105C259.95 57.8423 259.789 57.1179 259.936 56.2372C260.059 55.5365 260.348 54.9422 260.803 54.4545C261.262 53.9621 261.861 53.5881 262.599 53.3324C263.343 53.0767 264.19 52.9489 265.142 52.9489C266.667 52.9489 267.817 53.259 268.594 53.8793C269.375 54.4948 269.718 55.3423 269.624 56.4219Z" fill="#316789"/>
<path d="M125 67.9773H270.17V69.3409H125V67.9773Z" fill="#316789"/>
</svg>
